<?xml version="1.0" encoding="UTF-8"?>
<svg id="Layer_2" data-name="Layer 2" xmlns="http://www.w3.org/2000/svg" viewBox="0 0 116.6 89.35">
  <defs>
    <style>
      .cls-1 {
        fill: none;
        stroke: #231f20;
        stroke-linecap: round;
        stroke-linejoin: round;
        stroke-width: 2px;
      }
    </style>
  </defs>
  <g id="Layer_1-2" data-name="Layer 1">
    <g>
      <line class="cls-1" x1="58.3" y1="26.8" x2="58.3" y2="10.78"/>
      <circle class="cls-1" cx="58.3" cy="5.89" r="4.89"/>
      <polyline class="cls-1" points="30.26 33.42 18.35 33.58 10.01 20.03"/>
      <polyline class="cls-1" points="20.73 49 16.59 48.9 8.08 62.72"/>
      <circle class="cls-1" cx="8.08" cy="15.13" r="4.89"/>
      <circle class="cls-1" cx="5.89" cy="67.62" r="4.89"/>
      <polyline class="cls-1" points="92.81 33.51 98.24 33.58 106.58 20.03"/>
      <polyline class="cls-1" points="95.61 49.01 100 48.9 108.51 62.72"/>
      <circle class="cls-1" cx="108.51" cy="15.13" r="4.89"/>
      <circle class="cls-1" cx="110.7" cy="67.62" r="4.89"/>
      <path class="cls-1" d="M91.18,49.73c3.34,2.24,5.55,6.05,5.55,10.39v.11c-.05,5.33-4.57,9.53-9.91,9.53h-5.39"/>
      <path class="cls-1" d="M39.72,69.77h-9.94c-5.33,0-9.86-4.2-9.91-9.53v-.11c0-6.36,4.74-11.6,10.88-12.39-.35-1.85-.31-3.83.3-5.88,1.39-4.74,5.56-8.29,10.45-8.88,4.14-.5,7.93,1.04,10.53,3.74,2.03-7.53,9.06-13.02,17.33-12.64,1.69.07,3.33.4,4.87.95"/>
      <path class="cls-1" d="M76.88,72.63v-5.72h-4.29c-.38-1.9-1.13-3.67-2.16-5.22l3.03-3.03-4.04-4.04-3.03,3.03c-1.56-1.04-3.32-1.79-5.22-2.16v-4.29h-5.72v4.29c-1.9.38-3.67,1.13-5.22,2.16l-3.03-3.03-4.04,4.04,3.03,3.03c-1.04,1.56-1.79,3.32-2.16,5.22h-4.29v5.72h4.29c.38,1.9,1.13,3.67,2.16,5.22l-3.03,3.03,4.04,4.04,3.03-3.03c1.56,1.04,3.32,1.79,5.22,2.16v4.29h5.72v-4.29c1.9-.38,3.67-1.13,5.22-2.16l3.03,3.03,4.04-4.04-3.03-3.03c1.04-1.56,1.79-3.32,2.16-5.22h4.29ZM58.3,77.7c-4.38,0-7.93-3.55-7.93-7.93s3.55-7.93,7.93-7.93,7.93,3.55,7.93,7.93-3.55,7.93-7.93,7.93Z"/>
      <path class="cls-1" d="M90.87,42.27v-3.9h-2.93c-.26-1.3-.77-2.5-1.48-3.56l2.07-2.07-2.76-2.76-2.07,2.07c-1.06-.71-2.27-1.22-3.56-1.48v-2.93h-3.9v2.93c-1.3.26-2.5.77-3.56,1.48l-2.07-2.07-2.76,2.76,2.07,2.07c-.71,1.06-1.22,2.27-1.48,3.56h-2.93v3.9h2.93c.26,1.3.77,2.5,1.48,3.56l-2.07,2.07,2.76,2.76,2.07-2.07c1.06.71,2.27,1.22,3.56,1.48v2.93h3.9v-2.93c1.3-.26,2.5-.77,3.56-1.48l2.07,2.07,2.76-2.76-2.07-2.07c.71-1.06,1.22-2.27,1.48-3.56h2.93ZM78.19,45.38c-2.8,0-5.06-2.27-5.06-5.06s2.27-5.06,5.06-5.06,5.06,2.27,5.06,5.06-2.27,5.06-5.06,5.06Z"/>
    </g>
  </g>
</svg>